<!-- Generated by IcoMoon.io -->
<svg version="1.1" xmlns="http://www.w3.org/2000/svg" width="43" height="128" viewBox="0 0 43 128">
<title>angle-right</title>
<path fill="#666" d="M42.5 68.571c0 0.571-0.286 1.214-0.714 1.643l-33.286 33.286c-0.429 0.429-1.071 0.714-1.643 0.714s-1.214-0.286-1.643-0.714l-3.571-3.571c-0.429-0.429-0.714-1-0.714-1.643 0-0.571 0.286-1.214 0.714-1.643l28.071-28.071-28.071-28.071c-0.429-0.429-0.714-1.071-0.714-1.643s0.286-1.214 0.714-1.643l3.571-3.571c0.429-0.429 1.071-0.714 1.643-0.714s1.214 0.286 1.643 0.714l33.286 33.286c0.429 0.429 0.714 1.071 0.714 1.643z"></path>
</svg>
