<svg id="svg" version="1.1" xmlns="http://www.w3.org/2000/svg" xmlns:xlink="http://www.w3.org/1999/xlink" width="400" height="367.0588235294118" viewBox="0, 0, 400,367.0588235294118"><g id="svgg"><path id="path0" d="M42.256 14.964 C 29.513 43.772,26.613 100.752,36.370 130.588 C 38.486 137.059,40.734 144.820,41.366 147.836 C 42.897 155.153,62.786 204.701,70.763 221.076 C 78.592 237.144,78.447 237.304,63.431 229.131 C 41.832 217.376,24.843 193.211,17.431 163.704 C 12.178 142.791,5.737 142.405,6.156 163.028 C 6.887 199.000,35.287 237.450,77.647 259.821 C 94.450 268.694,89.588 261.643,127.124 331.591 C 143.118 361.398,143.890 362.353,151.984 362.353 C 162.035 362.353,163.469 359.989,169.116 334.118 C 174.841 307.888,181.273 285.128,188.165 266.708 L 193.113 253.483 187.733 245.581 C 184.774 241.235,181.703 237.672,180.910 237.663 C 178.256 237.634,166.211 266.788,158.655 291.527 L 151.182 315.996 142.301 302.116 C 134.070 289.249,108.297 238.270,101.934 222.266 C 79.126 164.903,88.450 95.520,121.730 74.952 C 133.467 67.698,131.311 58.782,118.956 63.479 C 93.683 73.088,70.781 114.093,68.335 154.118 C 67.781 163.173,61.404 147.197,54.992 120.693 C 48.413 93.499,47.844 40.848,53.916 21.230 C 59.365 3.628,49.594 -1.623,42.256 14.964 M346.819 8.013 C 346.137 9.788,346.648 17.446,347.953 25.032 C 354.882 65.302,352.976 101.710,342.242 134.118 C 334.769 156.681,331.849 161.483,331.801 151.292 C 331.644 118.461,310.370 78.616,286.133 65.758 C 268.127 56.206,266.442 62.818,282.960 78.215 C 328.888 121.028,319.158 207.442,257.735 302.238 L 248.661 316.241 245.506 304.591 C 237.046 273.350,234.136 265.320,223.141 242.874 L 211.295 218.690 220.819 206.345 C 226.057 199.556,236.768 189.843,244.621 184.761 C 252.474 179.679,258.530 174.411,258.078 173.055 C 255.238 164.522,233.930 173.799,214.012 192.240 L 200.176 205.050 187.912 193.290 C 174.754 180.673,153.475 168.507,146.820 169.798 C 139.724 171.174,140.597 176.053,148.673 180.155 C 186.129 199.180,212.809 249.758,231.750 337.647 C 236.533 359.838,238.182 362.353,247.957 362.353 C 255.999 362.353,256.901 361.317,269.487 337.647 C 277.245 323.056,297.438 286.649,304.819 273.946 C 307.632 269.103,314.913 263.705,326.863 257.603 C 361.895 239.713,389.359 203.663,394.898 168.301 C 398.808 143.332,389.784 139.595,383.427 163.551 C 375.482 193.493,356.111 220.391,334.414 231.611 C 323.678 237.163,323.546 236.086,332.541 216.244 C 373.279 126.382,381.345 63.660,358.437 14.888 C 354.516 6.540,348.704 3.101,346.819 8.013 " stroke="none" fill="#ffffff" fill-rule="evenodd"></path></g></svg>