<!-- Generated by IcoMoon.io -->
<svg version="1.1" xmlns="http://www.w3.org/2000/svg" width="32" height="32" viewBox="0 0 32 32">
<title>social-pinterest</title>
<path fill="#134731" d="M16.648 6.361c-5.64 0-8.484 4.044-8.484 7.416 0 2.044 0.775 3.859 2.431 4.535 0.273 0.112 0.516 0.005 0.595-0.295 0.055-0.209 0.184-0.737 0.243-0.956 0.081-0.295 0.049-0.4-0.169-0.66-0.479-0.563-0.784-1.296-0.784-2.329 0-3 2.244-5.685 5.845-5.685 3.189 0 4.941 1.951 4.941 4.549 0 3.424-1.516 6.312-3.765 6.312-1.243 0-2.172-1.027-1.873-2.287 0.357-1.507 1.048-3.129 1.048-4.213 0-0.972-0.523-1.781-1.6-1.781-1.269 0-2.291 1.312-2.291 3.072 0 1.121 0.381 1.879 0.381 1.879s-1.301 5.505-1.528 6.469c-0.453 1.92-0.068 4.275-0.033 4.513 0.017 0.139 0.199 0.175 0.28 0.068 0.117-0.153 1.631-2.023 2.143-3.887 0.148-0.528 0.836-3.26 0.836-3.26 0.415 0.785 1.617 1.477 2.9 1.477 3.817 0 6.405-3.477 6.405-8.137-0.004-3.52-2.987-6.8-7.52-6.8z"></path>
</svg>
