<!-- Generated by IcoMoon.io -->
<svg version="1.1" xmlns="http://www.w3.org/2000/svg" width="128" height="128" viewBox="0 0 128 128">
<title>instagram</title>
<path fill="#134731" d="M64 11.525c17.1 0 19.125 0.075 25.85 0.375 6.25 0.275 9.625 1.325 11.875 2.2 2.975 1.15 5.125 2.55 7.35 4.775 2.25 2.25 3.625 4.375 4.8 7.35 0.875 2.25 1.925 5.65 2.2 11.875 0.3 6.75 0.375 8.775 0.375 25.85s-0.075 19.125-0.375 25.85c-0.275 6.25-1.325 9.625-2.2 11.875-1.15 2.975-2.55 5.125-4.775 7.35-2.25 2.25-4.375 3.625-7.35 4.8-2.25 0.875-5.65 1.925-11.875 2.2-6.75 0.3-8.775 0.375-25.85 0.375s-19.125-0.075-25.85-0.375c-6.25-0.275-9.625-1.325-11.875-2.2-2.975-1.15-5.125-2.55-7.35-4.775-2.25-2.25-3.625-4.375-4.8-7.35-0.875-2.25-1.925-5.65-2.2-11.875-0.3-6.75-0.375-8.775-0.375-25.85s0.075-19.125 0.375-25.85c0.275-6.25 1.325-9.625 2.2-11.875 1.15-2.975 2.55-5.125 4.775-7.35 2.25-2.25 4.375-3.625 7.35-4.8 2.25-0.875 5.65-1.925 11.875-2.2 6.725-0.3 8.75-0.375 25.85-0.375zM64 0c-17.375 0-19.55 0.075-26.375 0.375-6.8 0.3-11.475 1.4-15.525 2.975-4.225 1.65-7.8 3.825-11.35 7.4-3.575 3.55-5.75 7.125-7.4 11.325-1.575 4.075-2.675 8.725-2.975 15.525-0.3 6.85-0.375 9.025-0.375 26.4s0.075 19.55 0.375 26.375c0.3 6.8 1.4 11.475 2.975 15.525 1.65 4.225 3.825 7.8 7.4 11.35 3.55 3.55 7.125 5.75 11.325 7.375 4.075 1.575 8.725 2.675 15.525 2.975 6.825 0.3 9 0.375 26.375 0.375s19.55-0.075 26.375-0.375c6.8-0.3 11.475-1.4 15.525-2.975 4.2-1.625 7.775-3.825 11.325-7.375s5.75-7.125 7.375-11.325c1.575-4.075 2.675-8.725 2.975-15.525 0.3-6.825 0.375-9 0.375-26.375s-0.075-19.55-0.375-26.375c-0.3-6.8-1.4-11.475-2.975-15.525-1.575-4.25-3.75-7.825-7.325-11.375-3.55-3.55-7.125-5.75-11.325-7.375-4.075-1.575-8.725-2.675-15.525-2.975-6.85-0.325-9.025-0.4-26.4-0.4v0z"></path>
<path fill="#134731" d="M64 31.125c-18.15 0-32.875 14.725-32.875 32.875s14.725 32.875 32.875 32.875 32.875-14.725 32.875-32.875c0-18.15-14.725-32.875-32.875-32.875zM64 85.325c-11.775 0-21.325-9.55-21.325-21.325s9.55-21.325 21.325-21.325c11.775 0 21.325 9.55 21.325 21.325s-9.55 21.325-21.325 21.325z"></path>
<path fill="#134731" d="M105.85 29.825c0 4.239-3.436 7.675-7.675 7.675s-7.675-3.436-7.675-7.675c0-4.239 3.436-7.675 7.675-7.675s7.675 3.436 7.675 7.675z"></path>
</svg>
